<svg viewBox="0 0 371 371" fill="none" xmlns="http://www.w3.org/2000/svg">
    <path d="M186.666 0.00390625C234.697 0.308285 278.395 18.8727 311.171 49.1016L316.88 23.166L320.299 23.9189L314.139 51.8984C314.652 52.3926 315.162 52.8896 315.669 53.3896L322.029 24.502L325.447 25.2549L318.603 56.3447C322.943 60.8188 327.057 65.513 330.932 70.4053L362.005 66.2979L362.464 69.7676L333.412 73.6074C333.831 74.1607 334.247 74.7163 334.66 75.2744L362.506 71.5928L362.965 75.0625L336.993 78.4961C358.371 108.723 370.933 145.628 370.933 185.467L370.929 186.666C370.92 188.078 370.892 189.486 370.852 190.891L363.518 184.82L361.669 203.834L369.371 209.316L370.325 200.551C362.648 295.926 282.818 370.932 185.467 370.933L184.267 370.929C90.4491 370.334 13.1625 300.082 1.51953 209.291L9.18652 203.834L7.33887 184.82L0.0791016 190.827C0.0398403 189.444 0.0127155 188.057 0.00390625 186.666L-0.000976562 185.467C-0.000844616 83.0368 83.0368 0.00013198 185.467 0L186.666 0.00390625ZM16.9131 144.304C13.7019 157.498 12 171.284 12 185.467C12.0003 281.269 89.6643 358.932 185.467 358.933C281.269 358.932 358.932 281.269 358.933 185.467C358.933 171.284 357.23 157.498 354.019 144.304H238.939L238.935 145.026C238.548 175.56 213.676 200.192 183.051 200.192L182.328 200.188C152.035 199.804 127.551 175.319 127.167 145.026L127.162 144.304H16.9131ZM0.0791016 190.827C0.256123 197.064 0.741403 203.223 1.51953 209.291L1.48438 209.316L0.478516 200.075L-0.000976562 190.894L0.0791016 190.827ZM370.378 200.075L370.325 200.551C370.355 200.178 370.383 199.804 370.411 199.43L370.378 200.075ZM128.166 145.013C128.546 175 152.973 199.192 183.051 199.192C213.128 199.192 237.555 175 237.935 145.013L237.939 144.304H232.627L232.622 144.944C232.279 172.029 210.217 193.88 183.051 193.88L182.41 193.875C155.539 193.535 133.819 171.816 133.479 144.944L133.475 144.304H128.162L128.166 145.013ZM134.479 144.932C134.815 171.47 156.433 192.88 183.051 192.88C209.878 192.88 231.627 171.131 231.627 144.304H226.834L226.82 145.434C226.221 169.092 206.854 188.088 183.051 188.088C159.247 188.088 139.881 169.092 139.281 145.434L139.267 144.304H134.475L134.479 144.932ZM370.855 190.894L370.849 191.014C370.85 190.973 370.85 190.932 370.852 190.891L370.855 190.894ZM185.467 12C105.287 12.0001 37.813 66.4 17.9385 140.304H127.304C129.355 111.304 153.529 88.415 183.051 88.415L183.773 88.4199C212.966 88.79 236.763 111.541 238.797 140.304H352.993C333.119 66.4002 265.646 12.0004 185.467 12ZM183.051 89.415C154.082 89.415 130.355 111.857 128.307 140.304H133.635C135.672 114.794 157.017 94.7275 183.051 94.7275L183.691 94.7314C209.433 95.0577 230.447 115.004 232.467 140.304H237.795C235.746 111.857 212.02 89.4152 183.051 89.415ZM183.051 95.7275C157.57 95.7275 136.672 115.347 134.638 140.304H139.45C141.47 117.997 160.218 100.52 183.051 100.52C205.883 100.52 224.63 117.997 226.65 140.304H231.464C229.43 115.347 208.531 95.7278 183.051 95.7275Z"
          fill="currentColor"/>
    <path d="M186.573 43.9185L192.295 44.186L199.454 45.0063L208.728 46.939L216.969 49.4399L222.273 51.688C223.577 52.2406 224.466 53.458 224.609 54.8521L224.627 55.1333C224.871 63.5057 217.143 69.8543 208.978 67.9897L205.579 67.2134L205.561 67.2095L205.543 67.2056L197.325 65.5444L197.273 65.5347L197.22 65.5278L190.813 64.6997L190.743 64.6909L190.674 64.689L185.046 64.4907L185.02 64.4897H179.451L179.424 64.4907L174.02 64.689L173.964 64.6909L173.908 64.6968L166.025 65.5737L165.97 65.5796L165.916 65.5894L155.548 67.5229L155.513 67.5298L155.479 67.5376L154.182 67.8433C145.872 69.7991 137.91 63.4938 137.91 54.9565C137.91 53.4731 138.726 52.1101 140.033 51.4087L142.924 49.8569L148.427 47.9849L153.473 46.6216L158.549 45.5991L163.277 44.7739L168.521 44.2065L174.166 43.9185L180.494 43.8521L186.573 43.9185Z"
          stroke="currentColor" stroke-width="3"/>
    <line x1="166.769" y1="44.1402" x2="167.772" y2="65.8895" stroke="currentColor" stroke-width="2"/>
    <line x1="196.372" y1="44.9844" x2="195.829" y2="66.7337" stroke="currentColor" stroke-width="2"/>
    <path d="M162.726 320.856H162.106L165.336 313.916H166.746L163.126 321.416H161.656L158.036 313.916H159.456L162.726 320.856ZM167.433 319.696V318.606H172.673V319.696H167.433ZM170.913 313.916L174.513 321.416H173.103L169.833 314.416H170.343L167.073 321.416H165.663L169.263 313.916H170.913ZM182.927 318.446C182.861 319.059 182.644 319.602 182.277 320.076C181.917 320.542 181.444 320.906 180.857 321.166C180.271 321.426 179.601 321.556 178.847 321.556C178.007 321.556 177.271 321.392 176.637 321.066C176.004 320.739 175.511 320.286 175.157 319.706C174.804 319.119 174.627 318.439 174.627 317.666C174.627 316.892 174.804 316.216 175.157 315.636C175.511 315.049 176.004 314.592 176.637 314.266C177.271 313.939 178.007 313.776 178.847 313.776C179.601 313.776 180.271 313.906 180.857 314.166C181.444 314.426 181.917 314.789 182.277 315.256C182.644 315.722 182.861 316.266 182.927 316.886H181.597C181.524 316.486 181.364 316.142 181.117 315.856C180.877 315.569 180.564 315.349 180.177 315.196C179.791 315.036 179.344 314.956 178.837 314.956C178.251 314.956 177.741 315.066 177.307 315.286C176.881 315.506 176.551 315.819 176.317 316.226C176.084 316.632 175.967 317.112 175.967 317.666C175.967 318.219 176.084 318.699 176.317 319.106C176.551 319.512 176.881 319.826 177.307 320.046C177.741 320.266 178.251 320.376 178.837 320.376C179.344 320.376 179.791 320.299 180.177 320.146C180.564 319.992 180.877 319.772 181.117 319.486C181.364 319.192 181.524 318.846 181.597 318.446H182.927ZM185.358 318.196C185.358 318.642 185.448 319.029 185.628 319.356C185.808 319.682 186.065 319.936 186.398 320.116C186.738 320.289 187.142 320.376 187.608 320.376C188.082 320.376 188.485 320.289 188.818 320.116C189.152 319.936 189.408 319.682 189.588 319.356C189.768 319.029 189.858 318.642 189.858 318.196V313.916H191.178V318.246C191.178 318.906 191.028 319.486 190.728 319.986C190.428 320.479 190.012 320.866 189.478 321.146C188.945 321.419 188.322 321.556 187.608 321.556C186.902 321.556 186.278 321.419 185.738 321.146C185.205 320.866 184.788 320.479 184.488 319.986C184.188 319.486 184.038 318.906 184.038 318.246V313.916H185.358V318.196ZM193.981 318.196C193.981 318.642 194.071 319.029 194.251 319.356C194.431 319.682 194.688 319.936 195.021 320.116C195.361 320.289 195.765 320.376 196.231 320.376C196.705 320.376 197.108 320.289 197.441 320.116C197.775 319.936 198.031 319.682 198.211 319.356C198.391 319.029 198.481 318.642 198.481 318.196V313.916H199.801V318.246C199.801 318.906 199.651 319.486 199.351 319.986C199.051 320.479 198.635 320.866 198.101 321.146C197.568 321.419 196.945 321.556 196.231 321.556C195.525 321.556 194.901 321.419 194.361 321.146C193.828 320.866 193.411 320.479 193.111 319.986C192.811 319.486 192.661 318.906 192.661 318.246V313.916H193.981V318.196ZM211.474 313.916V321.416H210.214V314.316L210.624 314.336L207.134 321.416H205.724L202.234 314.346L202.644 314.326V321.416H201.384V313.916H203.404L206.764 320.846H206.104L209.454 313.916H211.474Z"
          fill="currentColor"/>
</svg>
